M48
;GenerationSoftware,Autodesk,EAGLE,9.2.2*%
;CreationDate,2018-11-04T08:51:04Z*%
FMAT,2
ICI,OFF
METRIC,TZ,000.000
T3C0.300
T2C1.016
T1C3.000
%
G90
M71
T1
X34290Y3810
X3810Y3810
X34290Y34290
X3810Y34290
T2
X8890Y8890
X8890Y13970
T3
X19685Y11430
X18415Y21749
X17463Y20003
X17463Y19209
X18098Y18733
X17463Y20796
X13811Y23019
X13811Y22225
X21431Y23812
X18574Y26987
X17939Y26511
X14764Y25400
X15716Y25876
X17145Y26511
X16351Y26511
X16669Y20638
X15399Y20638
X14605Y20955
X13811Y21431
X20161Y26987
X20955Y26829
X24765Y12224
X23971Y15716
X24765Y15399
X20955Y10954
X20955Y10160
X21749Y11747
X22860Y11747
X15240Y11747
X14446Y11747
X13652Y11747
X13335Y10954
X13335Y10001
X15240Y9208
X14446Y9208
X13652Y9208
X15716Y18256
X14922Y18256
X14129Y18256
X13970Y17463
X13970Y16669
X13970Y15875
X21431Y18256
X21907Y17621
X21907Y16828
X21907Y16034
X21431Y24606
X21431Y25400
X19368Y26987
X22066Y18891
X1905Y22860
X2857Y22860
X3810Y22860
X4763Y22860
X5715Y22860
X6667Y22860
X7620Y22860
X8573Y22860
X9525Y22860
X10478Y22860
X11430Y22860
X12382Y22860
X1905Y25400
X2857Y25400
X3810Y25400
X4763Y25400
X5715Y25400
X6667Y25400
X7620Y25400
X8573Y25400
X9525Y25400
X10478Y25400
X11430Y25400
X12382Y25400
X13335Y25400
X2381Y26194
X3334Y26194
X4286Y26194
X5239Y26194
X6191Y26194
X7144Y26194
X8096Y26194
X9049Y26194
X10001Y26194
X10954Y26194
X2381Y22066
X3334Y22066
X4286Y22066
X5239Y22066
X6191Y22066
X7144Y22066
X8096Y22066
X9049Y22066
X10001Y22066
X10954Y22066
X27146Y24765
X28099Y24765
X29051Y24765
X30004Y24765
X30956Y24765
X31909Y24765
X32861Y24765
X33814Y24765
X34766Y24765
X35719Y24765
X36195Y26511
X32385Y26511
X32385Y27781
X36195Y27781
X34290Y27781
X34290Y26511
X27622Y23971
X28575Y23971
X29527Y23971
X30480Y23971
X31432Y23971
X32385Y23971
X33338Y23971
X34290Y23971
X35243Y23971
X36195Y23971
X26670Y23971
X25717Y23971
X24765Y23971
X23812Y23971
X22860Y23971
X26194Y24765
X25241Y24765
X24289Y24765
X23336Y24765
X27146Y20638
X28099Y20638
X29051Y20638
X30004Y20638
X30956Y20638
X31909Y20638
X32861Y20638
X33814Y20638
X34766Y20638
X35719Y20638
X27622Y21431
X28575Y21431
X29527Y21431
X30480Y21431
X31432Y21431
X32385Y21431
X33338Y21431
X34290Y21431
X35243Y21431
X36195Y21431
X26670Y21431
X25717Y21431
X24765Y21431
X26194Y20638
X25241Y20638
X23812Y21431
X24289Y20638
X22860Y21431
X23336Y20638
X35243Y26511
X35243Y27781
X33338Y27781
X33338Y26511
X36195Y17621
X32385Y17621
X32385Y18891
X36195Y18891
X21907Y21431
X34290Y17621
X35243Y17621
X35243Y18891
X33338Y18891
X33338Y17621
X5715Y27940
X1905Y27940
X1905Y29210
X5715Y29210
X3810Y29210
X3810Y27940
X4763Y27940
X4763Y29210
X2857Y29210
X2857Y27940
X5715Y19050
X1905Y19050
X1905Y20320
X5715Y20320
X3810Y20320
X3810Y19050
X4763Y19050
X4763Y20320
X2857Y20320
X2857Y19050
X21431Y26194
X15240Y5715
X34290Y18891
X13970Y1905
X13970Y5715
X13970Y3810
X15240Y3810
X15240Y4763
X13970Y4763
X13970Y2857
X15240Y2857
X24130Y5715
X24130Y1905
X22860Y1905
X22860Y5715
X22860Y3810
X24130Y3810
X24130Y4763
X22860Y4763
X22860Y2857
X24130Y2857
X16669Y19050
X16669Y19844
X22384Y20638
X22384Y24765
X22066Y19844
X24924Y13017
X24924Y13811
X23971Y11906
X24924Y14605
X15240Y1905
M30