G04 EAGLE Gerber RS-274X export*
G75*
%MOMM*%
%FSLAX34Y34*%
%LPD*%
%INBottom Copper*%
%IPPOS*%
%AMOC8*
5,1,8,0,0,1.08239X$1,22.5*%
G01*
%ADD10R,5.080000X2.286000*%
%ADD11R,2.286000X5.080000*%
%ADD12C,5.842000*%
%ADD13C,1.778000*%
%ADD14C,0.706400*%

G36*
X136710Y2041D02*
X136710Y2041D01*
X136768Y2039D01*
X136850Y2061D01*
X136934Y2073D01*
X136987Y2096D01*
X137043Y2111D01*
X137116Y2154D01*
X137193Y2189D01*
X137238Y2227D01*
X137288Y2256D01*
X137346Y2318D01*
X137410Y2372D01*
X137442Y2421D01*
X137482Y2464D01*
X137521Y2539D01*
X137568Y2609D01*
X137585Y2665D01*
X137612Y2717D01*
X137623Y2785D01*
X137653Y2880D01*
X137656Y2980D01*
X137667Y3048D01*
X137667Y13542D01*
X138858Y14733D01*
X242142Y14733D01*
X243333Y13542D01*
X243333Y3048D01*
X243341Y2990D01*
X243339Y2932D01*
X243361Y2850D01*
X243373Y2766D01*
X243396Y2713D01*
X243411Y2657D01*
X243454Y2584D01*
X243489Y2507D01*
X243527Y2462D01*
X243556Y2412D01*
X243618Y2354D01*
X243672Y2290D01*
X243721Y2258D01*
X243764Y2218D01*
X243839Y2179D01*
X243909Y2132D01*
X243965Y2115D01*
X244017Y2088D01*
X244085Y2077D01*
X244180Y2047D01*
X244280Y2044D01*
X244348Y2033D01*
X342900Y2033D01*
X342937Y2038D01*
X342966Y2035D01*
X347542Y2335D01*
X347662Y2360D01*
X347738Y2367D01*
X356577Y4736D01*
X356768Y4817D01*
X356821Y4837D01*
X364746Y9412D01*
X364910Y9541D01*
X364956Y9573D01*
X371427Y16044D01*
X371552Y16210D01*
X371588Y16254D01*
X376163Y24179D01*
X376241Y24372D01*
X376264Y24423D01*
X378633Y33262D01*
X378638Y33306D01*
X378648Y33338D01*
X378650Y33393D01*
X378665Y33458D01*
X378965Y38034D01*
X378962Y38070D01*
X378967Y38100D01*
X378967Y173165D01*
X378959Y173222D01*
X378961Y173281D01*
X378939Y173362D01*
X378927Y173446D01*
X378904Y173499D01*
X378889Y173556D01*
X378846Y173628D01*
X378811Y173705D01*
X378773Y173750D01*
X378744Y173800D01*
X378682Y173858D01*
X378628Y173922D01*
X378579Y173955D01*
X378536Y173995D01*
X378461Y174033D01*
X378391Y174080D01*
X378335Y174098D01*
X378283Y174124D01*
X378215Y174136D01*
X378120Y174166D01*
X378020Y174168D01*
X377952Y174180D01*
X367458Y174180D01*
X366267Y175370D01*
X366267Y278655D01*
X367458Y279845D01*
X377952Y279845D01*
X378010Y279853D01*
X378068Y279852D01*
X378150Y279873D01*
X378234Y279885D01*
X378287Y279909D01*
X378343Y279924D01*
X378416Y279967D01*
X378493Y280001D01*
X378538Y280039D01*
X378588Y280069D01*
X378646Y280131D01*
X378710Y280185D01*
X378742Y280234D01*
X378782Y280276D01*
X378821Y280351D01*
X378868Y280422D01*
X378885Y280477D01*
X378912Y280529D01*
X378923Y280597D01*
X378953Y280693D01*
X378956Y280792D01*
X378967Y280860D01*
X378967Y342900D01*
X378962Y342937D01*
X378965Y342966D01*
X378665Y347542D01*
X378640Y347662D01*
X378633Y347738D01*
X376264Y356577D01*
X376204Y356719D01*
X376197Y356746D01*
X376181Y356772D01*
X376163Y356821D01*
X371588Y364746D01*
X371459Y364910D01*
X371427Y364956D01*
X364956Y371427D01*
X364790Y371552D01*
X364746Y371588D01*
X356821Y376163D01*
X356628Y376241D01*
X356577Y376264D01*
X347738Y378633D01*
X347616Y378648D01*
X347542Y378665D01*
X342966Y378965D01*
X342930Y378962D01*
X342900Y378967D01*
X38100Y378967D01*
X38063Y378962D01*
X38034Y378965D01*
X33458Y378665D01*
X33338Y378640D01*
X33262Y378633D01*
X24423Y376264D01*
X24232Y376183D01*
X24179Y376163D01*
X16254Y371588D01*
X16090Y371459D01*
X16044Y371427D01*
X9573Y364956D01*
X9448Y364790D01*
X9412Y364746D01*
X4837Y356821D01*
X4828Y356799D01*
X4824Y356794D01*
X4819Y356777D01*
X4759Y356628D01*
X4736Y356577D01*
X2367Y347738D01*
X2352Y347616D01*
X2335Y347542D01*
X2035Y342966D01*
X2038Y342930D01*
X2033Y342900D01*
X2033Y295148D01*
X2041Y295090D01*
X2039Y295032D01*
X2061Y294950D01*
X2073Y294866D01*
X2096Y294813D01*
X2111Y294757D01*
X2154Y294684D01*
X2189Y294607D01*
X2227Y294562D01*
X2256Y294512D01*
X2318Y294454D01*
X2372Y294390D01*
X2421Y294358D01*
X2464Y294318D01*
X2539Y294279D01*
X2609Y294232D01*
X2665Y294215D01*
X2717Y294188D01*
X2785Y294177D01*
X2880Y294147D01*
X2980Y294144D01*
X3048Y294133D01*
X13542Y294133D01*
X14733Y292942D01*
X14733Y189658D01*
X13542Y188467D01*
X3048Y188467D01*
X2990Y188459D01*
X2932Y188461D01*
X2850Y188439D01*
X2766Y188427D01*
X2713Y188404D01*
X2657Y188389D01*
X2584Y188346D01*
X2507Y188311D01*
X2462Y188273D01*
X2412Y188244D01*
X2354Y188182D01*
X2290Y188128D01*
X2258Y188079D01*
X2218Y188036D01*
X2179Y187961D01*
X2132Y187891D01*
X2115Y187835D01*
X2088Y187783D01*
X2077Y187715D01*
X2047Y187620D01*
X2044Y187520D01*
X2033Y187452D01*
X2033Y38100D01*
X2038Y38063D01*
X2035Y38034D01*
X2335Y33458D01*
X2345Y33410D01*
X2344Y33389D01*
X2361Y33325D01*
X2367Y33262D01*
X4736Y24423D01*
X4817Y24232D01*
X4837Y24179D01*
X9412Y16254D01*
X9541Y16090D01*
X9573Y16044D01*
X16044Y9573D01*
X16210Y9448D01*
X16254Y9412D01*
X24179Y4837D01*
X24372Y4759D01*
X24423Y4736D01*
X33262Y2367D01*
X33384Y2352D01*
X33458Y2335D01*
X38034Y2035D01*
X38070Y2038D01*
X38100Y2033D01*
X136652Y2033D01*
X136710Y2041D01*
G37*
%LPC*%
G36*
X86727Y128777D02*
X86727Y128777D01*
X82713Y130440D01*
X79640Y133513D01*
X77977Y137527D01*
X77977Y141873D01*
X79640Y145887D01*
X82713Y148960D01*
X86727Y150623D01*
X91073Y150623D01*
X95087Y148960D01*
X98160Y145887D01*
X99823Y141873D01*
X99823Y137527D01*
X98160Y133513D01*
X95087Y130440D01*
X91073Y128777D01*
X86727Y128777D01*
G37*
%LPD*%
D10*
X38354Y197104D03*
X38354Y285496D03*
X342646Y271209D03*
X342646Y182817D03*
D11*
X234696Y38354D03*
X146304Y38354D03*
D12*
X342900Y38100D03*
X38100Y38100D03*
X342900Y342900D03*
X38100Y342900D03*
D13*
X88900Y139700D03*
X88900Y88900D03*
D14*
X219075Y214313D03*
X220663Y198438D03*
X249238Y130175D03*
X249238Y138113D03*
X239713Y119063D03*
X249238Y146050D03*
X196850Y114300D03*
X184150Y217488D03*
X174625Y200025D03*
X174625Y192088D03*
X180975Y187325D03*
X174625Y207963D03*
X138113Y230188D03*
X138113Y222250D03*
X214313Y238125D03*
X185738Y269875D03*
X179388Y265113D03*
X147638Y254000D03*
X157163Y258763D03*
X171450Y265113D03*
X163513Y265113D03*
X166688Y206375D03*
X153988Y206375D03*
X146050Y209550D03*
X138113Y214313D03*
X201613Y269875D03*
X209550Y268288D03*
X247650Y122238D03*
X239713Y157163D03*
X247650Y153988D03*
X209550Y109538D03*
X209550Y101600D03*
X217488Y117475D03*
X228600Y117475D03*
X152400Y117475D03*
X144463Y117475D03*
X136525Y117475D03*
X133350Y109538D03*
X133350Y100013D03*
X152400Y92075D03*
X144463Y92075D03*
X136525Y92075D03*
X157163Y182563D03*
X149225Y182563D03*
X141288Y182563D03*
X139700Y174625D03*
X139700Y166688D03*
X139700Y158750D03*
X214313Y182563D03*
X219075Y176213D03*
X219075Y168275D03*
X219075Y160338D03*
X214313Y246063D03*
X214313Y254000D03*
X193675Y269875D03*
X220663Y188913D03*
X19050Y228600D03*
X28575Y228600D03*
X38100Y228600D03*
X47625Y228600D03*
X57150Y228600D03*
X66675Y228600D03*
X76200Y228600D03*
X85725Y228600D03*
X95250Y228600D03*
X104775Y228600D03*
X114300Y228600D03*
X123825Y228600D03*
X19050Y254000D03*
X28575Y254000D03*
X38100Y254000D03*
X47625Y254000D03*
X57150Y254000D03*
X66675Y254000D03*
X76200Y254000D03*
X85725Y254000D03*
X95250Y254000D03*
X104775Y254000D03*
X114300Y254000D03*
X123825Y254000D03*
X133350Y254000D03*
X23813Y261938D03*
X33338Y261938D03*
X42863Y261938D03*
X52388Y261938D03*
X61913Y261938D03*
X71438Y261938D03*
X80963Y261938D03*
X90488Y261938D03*
X100013Y261938D03*
X109538Y261938D03*
X23813Y220663D03*
X33338Y220663D03*
X42863Y220663D03*
X52388Y220663D03*
X61913Y220663D03*
X71438Y220663D03*
X80963Y220663D03*
X90488Y220663D03*
X100013Y220663D03*
X109538Y220663D03*
X271463Y247650D03*
X280988Y247650D03*
X290513Y247650D03*
X300038Y247650D03*
X309563Y247650D03*
X319088Y247650D03*
X328613Y247650D03*
X338138Y247650D03*
X347663Y247650D03*
X357188Y247650D03*
X361950Y265113D03*
X323850Y265113D03*
X323850Y277813D03*
X361950Y277813D03*
X342900Y277813D03*
X342900Y265113D03*
X276225Y239713D03*
X285750Y239713D03*
X295275Y239713D03*
X304800Y239713D03*
X314325Y239713D03*
X323850Y239713D03*
X333375Y239713D03*
X342900Y239713D03*
X352425Y239713D03*
X361950Y239713D03*
X266700Y239713D03*
X257175Y239713D03*
X247650Y239713D03*
X238125Y239713D03*
X228600Y239713D03*
X261938Y247650D03*
X252413Y247650D03*
X242888Y247650D03*
X233363Y247650D03*
X271463Y206375D03*
X280988Y206375D03*
X290513Y206375D03*
X300038Y206375D03*
X309563Y206375D03*
X319088Y206375D03*
X328613Y206375D03*
X338138Y206375D03*
X347663Y206375D03*
X357188Y206375D03*
X276225Y214313D03*
X285750Y214313D03*
X295275Y214313D03*
X304800Y214313D03*
X314325Y214313D03*
X323850Y214313D03*
X333375Y214313D03*
X342900Y214313D03*
X352425Y214313D03*
X361950Y214313D03*
X266700Y214313D03*
X257175Y214313D03*
X247650Y214313D03*
X261938Y206375D03*
X252413Y206375D03*
X238125Y214313D03*
X242888Y206375D03*
X228600Y214313D03*
X233363Y206375D03*
X352425Y265113D03*
X352425Y277813D03*
X333375Y277813D03*
X333375Y265113D03*
X361950Y176213D03*
X323850Y176213D03*
X323850Y188913D03*
X361950Y188913D03*
X342900Y188913D03*
X342900Y176213D03*
X352425Y176213D03*
X352425Y188913D03*
X333375Y188913D03*
X333375Y176213D03*
X57150Y279400D03*
X19050Y279400D03*
X19050Y292100D03*
X57150Y292100D03*
X38100Y292100D03*
X38100Y279400D03*
X47625Y279400D03*
X47625Y292100D03*
X28575Y292100D03*
X28575Y279400D03*
X57150Y190500D03*
X19050Y190500D03*
X19050Y203200D03*
X57150Y203200D03*
X38100Y203200D03*
X38100Y190500D03*
X47625Y190500D03*
X47625Y203200D03*
X28575Y203200D03*
X28575Y190500D03*
X214313Y261938D03*
X152400Y57150D03*
X152400Y19050D03*
X139700Y19050D03*
X139700Y57150D03*
X139700Y38100D03*
X152400Y38100D03*
X152400Y47625D03*
X139700Y47625D03*
X139700Y28575D03*
X152400Y28575D03*
X241300Y57150D03*
X241300Y19050D03*
X228600Y19050D03*
X228600Y57150D03*
X228600Y38100D03*
X241300Y38100D03*
X241300Y47625D03*
X228600Y47625D03*
X228600Y28575D03*
X241300Y28575D03*
X166688Y190500D03*
X166688Y198438D03*
X223838Y206375D03*
X223838Y247650D03*
M02*
