G04 EAGLE Gerber RS-274X export*
G75*
%MOMM*%
%FSLAX34Y34*%
%LPD*%
%INTop Copper*%
%IPPOS*%
%AMOC8*
5,1,8,0,0,1.08239X$1,22.5*%
G01*
%ADD10R,0.600000X0.700000*%
%ADD11R,0.700000X0.600000*%
%ADD12R,0.550000X0.800000*%
%ADD13R,0.550000X0.600000*%
%ADD14R,5.080000X1.143000*%
%ADD15R,5.080000X2.286000*%
%ADD16R,0.950000X0.950000*%
%ADD17R,1.300000X1.500000*%
%ADD18R,0.550000X1.200000*%
%ADD19R,1.143000X5.080000*%
%ADD20R,2.286000X5.080000*%
%ADD21C,5.842000*%
%ADD22C,1.778000*%
%ADD23C,0.706400*%
%ADD24C,0.406400*%
%ADD25C,0.304800*%
%ADD26C,1.143000*%
%ADD27C,0.152400*%
%ADD28C,0.203200*%
%ADD29C,0.508000*%
%ADD30C,0.965200*%

G36*
X229095Y234366D02*
X229095Y234366D01*
X229108Y234364D01*
X229698Y234457D01*
X229721Y234472D01*
X229772Y234498D01*
X229835Y234567D01*
X230654Y234610D01*
X230660Y234613D01*
X230667Y234612D01*
X231477Y234740D01*
X231553Y234686D01*
X231579Y234679D01*
X231633Y234662D01*
X232521Y234708D01*
X232526Y234711D01*
X232604Y234745D01*
X232619Y234760D01*
X233503Y234760D01*
X233506Y234762D01*
X233509Y234760D01*
X234392Y234807D01*
X234407Y234793D01*
X234408Y234793D01*
X234413Y234791D01*
X234492Y234760D01*
X366141Y234760D01*
X366143Y234761D01*
X366145Y234760D01*
X366188Y234780D01*
X366232Y234799D01*
X366232Y234801D01*
X366234Y234802D01*
X366267Y234886D01*
X366267Y257112D01*
X366266Y257114D01*
X366267Y257116D01*
X366247Y257159D01*
X366229Y257202D01*
X366227Y257203D01*
X366226Y257205D01*
X366141Y257238D01*
X364235Y257238D01*
X364235Y279496D01*
X366616Y281877D01*
X375920Y281877D01*
X375978Y281885D01*
X376036Y281884D01*
X376118Y281905D01*
X376202Y281917D01*
X376255Y281941D01*
X376311Y281956D01*
X376384Y281999D01*
X376461Y282033D01*
X376506Y282071D01*
X376556Y282101D01*
X376614Y282163D01*
X376678Y282217D01*
X376710Y282266D01*
X376750Y282308D01*
X376789Y282383D01*
X376836Y282454D01*
X376853Y282509D01*
X376880Y282561D01*
X376891Y282629D01*
X376921Y282725D01*
X376924Y282824D01*
X376935Y282892D01*
X376935Y342900D01*
X376930Y342937D01*
X376933Y342966D01*
X376651Y347276D01*
X376643Y347313D01*
X376644Y347336D01*
X376624Y347410D01*
X376618Y347473D01*
X374387Y355799D01*
X374306Y355991D01*
X374286Y356044D01*
X369976Y363509D01*
X369847Y363673D01*
X369814Y363719D01*
X363719Y369814D01*
X363553Y369940D01*
X363509Y369976D01*
X356044Y374286D01*
X355851Y374364D01*
X355799Y374387D01*
X347473Y376618D01*
X347351Y376633D01*
X347276Y376651D01*
X342966Y376933D01*
X342930Y376930D01*
X342900Y376935D01*
X38100Y376935D01*
X38063Y376930D01*
X38034Y376933D01*
X33724Y376651D01*
X33604Y376625D01*
X33527Y376618D01*
X25201Y374387D01*
X25009Y374306D01*
X24956Y374286D01*
X17491Y369976D01*
X17327Y369847D01*
X17281Y369814D01*
X11186Y363719D01*
X11060Y363553D01*
X11024Y363509D01*
X6714Y356044D01*
X6636Y355851D01*
X6613Y355799D01*
X4382Y347473D01*
X4376Y347427D01*
X4364Y347387D01*
X4362Y347331D01*
X4349Y347276D01*
X4067Y342966D01*
X4070Y342930D01*
X4065Y342900D01*
X4065Y297180D01*
X4073Y297122D01*
X4071Y297064D01*
X4093Y296982D01*
X4105Y296898D01*
X4128Y296845D01*
X4143Y296789D01*
X4186Y296716D01*
X4221Y296639D01*
X4259Y296594D01*
X4288Y296544D01*
X4350Y296486D01*
X4404Y296422D01*
X4453Y296390D01*
X4496Y296350D01*
X4571Y296311D01*
X4641Y296264D01*
X4697Y296247D01*
X4749Y296220D01*
X4817Y296209D01*
X4912Y296179D01*
X5012Y296176D01*
X5080Y296165D01*
X14384Y296165D01*
X16765Y293784D01*
X16765Y271525D01*
X14859Y271525D01*
X14857Y271524D01*
X14855Y271525D01*
X14812Y271505D01*
X14768Y271487D01*
X14768Y271485D01*
X14766Y271484D01*
X14733Y271399D01*
X14733Y249174D01*
X14734Y249172D01*
X14733Y249170D01*
X14753Y249127D01*
X14771Y249083D01*
X14773Y249083D01*
X14774Y249081D01*
X14859Y249048D01*
X98883Y249048D01*
X98888Y249050D01*
X98967Y249080D01*
X98983Y249094D01*
X99866Y249048D01*
X99869Y249049D01*
X99872Y249048D01*
X100756Y249048D01*
X100771Y249033D01*
X100777Y249030D01*
X100854Y248996D01*
X101742Y248949D01*
X101754Y248954D01*
X101755Y248954D01*
X101758Y248955D01*
X101767Y248958D01*
X101822Y248973D01*
X101898Y249028D01*
X102708Y248899D01*
X102714Y248901D01*
X102721Y248898D01*
X103540Y248855D01*
X103603Y248785D01*
X103627Y248774D01*
X103677Y248745D01*
X103746Y248734D01*
X103757Y248737D01*
X103770Y248733D01*
X112644Y249010D01*
X113219Y248887D01*
X113354Y248878D01*
X113431Y248865D01*
X130347Y248865D01*
X130411Y248827D01*
X130478Y248777D01*
X130533Y248756D01*
X130583Y248726D01*
X130665Y248705D01*
X130744Y248675D01*
X130802Y248671D01*
X130859Y248656D01*
X130943Y248659D01*
X131027Y248652D01*
X131084Y248663D01*
X131143Y248665D01*
X131223Y248691D01*
X131306Y248708D01*
X131358Y248735D01*
X131413Y248753D01*
X131469Y248793D01*
X131558Y248839D01*
X131585Y248865D01*
X150971Y248865D01*
X151411Y248425D01*
X151481Y248372D01*
X151545Y248312D01*
X151594Y248287D01*
X151639Y248254D01*
X151720Y248223D01*
X151798Y248183D01*
X151846Y248175D01*
X151904Y248152D01*
X152052Y248140D01*
X152129Y248127D01*
X159958Y248127D01*
X160015Y248135D01*
X160074Y248134D01*
X160155Y248155D01*
X160239Y248167D01*
X160292Y248191D01*
X160349Y248206D01*
X160421Y248249D01*
X160498Y248283D01*
X160543Y248321D01*
X160593Y248351D01*
X160651Y248413D01*
X160715Y248467D01*
X160748Y248516D01*
X160788Y248558D01*
X160826Y248633D01*
X160873Y248704D01*
X160891Y248759D01*
X160917Y248811D01*
X160929Y248879D01*
X160959Y248975D01*
X160961Y249074D01*
X160973Y249142D01*
X160973Y257596D01*
X163354Y259977D01*
X182721Y259977D01*
X183504Y259194D01*
X183551Y259159D01*
X183591Y259117D01*
X183664Y259074D01*
X183732Y259023D01*
X183786Y259002D01*
X183837Y258973D01*
X183918Y258952D01*
X183997Y258922D01*
X184056Y258917D01*
X184112Y258903D01*
X184196Y258905D01*
X184280Y258898D01*
X184338Y258910D01*
X184396Y258912D01*
X184477Y258938D01*
X184559Y258954D01*
X184611Y258981D01*
X184667Y258999D01*
X184723Y259039D01*
X184812Y259085D01*
X184884Y259154D01*
X184940Y259194D01*
X185208Y259462D01*
X206968Y259462D01*
X209424Y257006D01*
X209424Y247692D01*
X204133Y242401D01*
X204081Y242331D01*
X204021Y242267D01*
X203995Y242218D01*
X203962Y242174D01*
X203931Y242092D01*
X203891Y242014D01*
X203883Y241967D01*
X203861Y241908D01*
X203853Y241811D01*
X203850Y241801D01*
X203849Y241760D01*
X203836Y241683D01*
X203836Y235592D01*
X203844Y235535D01*
X203842Y235476D01*
X203864Y235395D01*
X203876Y235311D01*
X203899Y235258D01*
X203914Y235201D01*
X203957Y235129D01*
X203992Y235052D01*
X204030Y235007D01*
X204059Y234957D01*
X204121Y234899D01*
X204175Y234835D01*
X204224Y234802D01*
X204267Y234762D01*
X204342Y234724D01*
X204412Y234677D01*
X204468Y234659D01*
X204520Y234633D01*
X204588Y234621D01*
X204683Y234591D01*
X204783Y234589D01*
X204851Y234577D01*
X219944Y234577D01*
X220078Y234596D01*
X220156Y234600D01*
X220326Y234636D01*
X229084Y234362D01*
X229095Y234366D01*
G37*
G36*
X342937Y4070D02*
X342937Y4070D01*
X342966Y4067D01*
X347276Y4349D01*
X347396Y4375D01*
X347473Y4382D01*
X355799Y6613D01*
X355991Y6694D01*
X356044Y6714D01*
X363509Y11024D01*
X363673Y11153D01*
X363719Y11186D01*
X369814Y17281D01*
X369940Y17447D01*
X369976Y17491D01*
X374286Y24956D01*
X374364Y25149D01*
X374387Y25201D01*
X376618Y33527D01*
X376633Y33649D01*
X376651Y33724D01*
X376933Y38034D01*
X376930Y38070D01*
X376935Y38100D01*
X376935Y171133D01*
X376927Y171190D01*
X376929Y171249D01*
X376907Y171330D01*
X376895Y171414D01*
X376872Y171467D01*
X376857Y171524D01*
X376814Y171596D01*
X376779Y171673D01*
X376741Y171718D01*
X376712Y171768D01*
X376650Y171826D01*
X376596Y171890D01*
X376547Y171923D01*
X376504Y171963D01*
X376429Y172001D01*
X376359Y172048D01*
X376303Y172066D01*
X376251Y172092D01*
X376183Y172104D01*
X376088Y172134D01*
X375988Y172136D01*
X375920Y172148D01*
X366616Y172148D01*
X364235Y174529D01*
X364235Y196787D01*
X366141Y196787D01*
X366143Y196788D01*
X366145Y196787D01*
X366188Y196807D01*
X366232Y196826D01*
X366232Y196828D01*
X366234Y196829D01*
X366267Y196913D01*
X366267Y219139D01*
X366267Y219140D01*
X366267Y219142D01*
X366267Y219143D01*
X366247Y219186D01*
X366229Y219229D01*
X366227Y219230D01*
X366226Y219232D01*
X366141Y219265D01*
X234492Y219265D01*
X234487Y219263D01*
X234408Y219232D01*
X234392Y219218D01*
X233509Y219265D01*
X233507Y219264D01*
X233505Y219264D01*
X233503Y219265D01*
X232619Y219265D01*
X232604Y219280D01*
X232598Y219282D01*
X232521Y219317D01*
X231633Y219363D01*
X231608Y219354D01*
X231553Y219339D01*
X231477Y219285D01*
X230667Y219413D01*
X230661Y219412D01*
X230654Y219415D01*
X229835Y219458D01*
X229772Y219527D01*
X229748Y219539D01*
X229698Y219568D01*
X229108Y219661D01*
X229096Y219659D01*
X229084Y219663D01*
X220326Y219389D01*
X220156Y219425D01*
X220021Y219435D01*
X219944Y219448D01*
X214566Y219448D01*
X214509Y219440D01*
X214450Y219441D01*
X214369Y219420D01*
X214285Y219408D01*
X214232Y219384D01*
X214175Y219369D01*
X214103Y219326D01*
X214026Y219292D01*
X213981Y219254D01*
X213931Y219224D01*
X213873Y219162D01*
X213809Y219108D01*
X213776Y219059D01*
X213736Y219017D01*
X213698Y218942D01*
X213651Y218871D01*
X213633Y218816D01*
X213607Y218764D01*
X213595Y218696D01*
X213565Y218600D01*
X213563Y218501D01*
X213551Y218433D01*
X213551Y211613D01*
X212700Y209559D01*
X211128Y207987D01*
X210812Y207856D01*
X210811Y207855D01*
X210810Y207855D01*
X210691Y207785D01*
X210568Y207712D01*
X210567Y207711D01*
X210565Y207710D01*
X210468Y207606D01*
X210372Y207505D01*
X210372Y207504D01*
X210371Y207503D01*
X210306Y207377D01*
X210242Y207252D01*
X210242Y207251D01*
X210241Y207249D01*
X210239Y207234D01*
X210187Y206973D01*
X210190Y206943D01*
X210186Y206918D01*
X210186Y182922D01*
X203625Y176361D01*
X203605Y176334D01*
X203585Y176317D01*
X203555Y176273D01*
X203513Y176227D01*
X203487Y176178D01*
X203454Y176134D01*
X203443Y176104D01*
X203427Y176081D01*
X203411Y176028D01*
X203383Y175974D01*
X203375Y175927D01*
X203353Y175868D01*
X203350Y175837D01*
X203342Y175810D01*
X203339Y175711D01*
X203328Y175643D01*
X203328Y164634D01*
X201604Y162910D01*
X201587Y162887D01*
X201564Y162868D01*
X201502Y162774D01*
X201433Y162683D01*
X201423Y162656D01*
X201407Y162631D01*
X201373Y162523D01*
X201332Y162418D01*
X201330Y162388D01*
X201321Y162360D01*
X201318Y162247D01*
X201309Y162134D01*
X201314Y162106D01*
X201314Y162076D01*
X201342Y161967D01*
X201365Y161855D01*
X201378Y161829D01*
X201386Y161801D01*
X201443Y161704D01*
X201496Y161603D01*
X201516Y161582D01*
X201531Y161557D01*
X201613Y161479D01*
X201691Y161397D01*
X201717Y161382D01*
X201738Y161362D01*
X201839Y161311D01*
X201937Y161253D01*
X201965Y161246D01*
X201991Y161233D01*
X202069Y161220D01*
X202212Y161183D01*
X202275Y161185D01*
X202322Y161177D01*
X210784Y161177D01*
X213165Y158796D01*
X213165Y157716D01*
X213173Y157659D01*
X213171Y157600D01*
X213193Y157519D01*
X213205Y157435D01*
X213228Y157382D01*
X213243Y157325D01*
X213286Y157253D01*
X213321Y157176D01*
X213359Y157131D01*
X213388Y157081D01*
X213450Y157023D01*
X213504Y156959D01*
X213553Y156926D01*
X213596Y156886D01*
X213671Y156848D01*
X213741Y156801D01*
X213797Y156783D01*
X213849Y156757D01*
X213917Y156745D01*
X214012Y156715D01*
X214112Y156713D01*
X214180Y156701D01*
X220574Y156701D01*
X222628Y155850D01*
X223317Y155162D01*
X223386Y155110D01*
X223450Y155050D01*
X223500Y155024D01*
X223544Y154991D01*
X223625Y154960D01*
X223703Y154920D01*
X223751Y154912D01*
X223809Y154890D01*
X223957Y154878D01*
X224034Y154865D01*
X230959Y154865D01*
X233340Y152484D01*
X233340Y139616D01*
X232554Y138830D01*
X232519Y138784D01*
X232476Y138743D01*
X232434Y138671D01*
X232383Y138603D01*
X232362Y138549D01*
X232333Y138498D01*
X232312Y138416D01*
X232282Y138338D01*
X232277Y138279D01*
X232262Y138223D01*
X232265Y138138D01*
X232258Y138054D01*
X232270Y137997D01*
X232271Y137938D01*
X232297Y137858D01*
X232314Y137775D01*
X232341Y137724D01*
X232359Y137668D01*
X232399Y137612D01*
X232445Y137523D01*
X232503Y137462D01*
X232515Y137442D01*
X232530Y137427D01*
X232554Y137395D01*
X233340Y136609D01*
X233340Y123741D01*
X230959Y121360D01*
X218091Y121360D01*
X215710Y123741D01*
X215710Y130666D01*
X215698Y130752D01*
X215695Y130840D01*
X215678Y130892D01*
X215670Y130947D01*
X215635Y131027D01*
X215608Y131110D01*
X215580Y131149D01*
X215554Y131206D01*
X215458Y131320D01*
X215413Y131383D01*
X214898Y131898D01*
X214874Y131916D01*
X214855Y131939D01*
X214761Y132001D01*
X214671Y132069D01*
X214643Y132080D01*
X214619Y132096D01*
X214511Y132130D01*
X214405Y132171D01*
X214376Y132173D01*
X214348Y132182D01*
X214235Y132185D01*
X214122Y132194D01*
X214093Y132188D01*
X214064Y132189D01*
X213954Y132161D01*
X213843Y132138D01*
X213817Y132125D01*
X213789Y132117D01*
X213691Y132060D01*
X213591Y132007D01*
X213569Y131987D01*
X213544Y131972D01*
X213467Y131889D01*
X213385Y131812D01*
X213370Y131786D01*
X213350Y131765D01*
X213298Y131664D01*
X213241Y131566D01*
X213234Y131538D01*
X213220Y131512D01*
X213207Y131434D01*
X213171Y131291D01*
X213173Y131228D01*
X213165Y131181D01*
X213165Y117429D01*
X210784Y115048D01*
X201916Y115048D01*
X199535Y117429D01*
X199535Y128065D01*
X199527Y128122D01*
X199529Y128181D01*
X199507Y128262D01*
X199495Y128346D01*
X199472Y128399D01*
X199457Y128456D01*
X199414Y128528D01*
X199379Y128605D01*
X199341Y128650D01*
X199312Y128700D01*
X199250Y128758D01*
X199196Y128822D01*
X199147Y128855D01*
X199104Y128895D01*
X199029Y128933D01*
X198959Y128980D01*
X198903Y128998D01*
X198851Y129024D01*
X198783Y129036D01*
X198688Y129066D01*
X198588Y129068D01*
X198520Y129080D01*
X195180Y129080D01*
X195122Y129072D01*
X195064Y129073D01*
X194982Y129052D01*
X194898Y129040D01*
X194845Y129016D01*
X194789Y129001D01*
X194716Y128958D01*
X194639Y128924D01*
X194594Y128886D01*
X194544Y128856D01*
X194486Y128794D01*
X194422Y128740D01*
X194390Y128691D01*
X194350Y128649D01*
X194311Y128574D01*
X194264Y128503D01*
X194247Y128448D01*
X194220Y128396D01*
X194209Y128328D01*
X194179Y128232D01*
X194176Y128133D01*
X194165Y128065D01*
X194165Y117429D01*
X191740Y115004D01*
X191687Y114934D01*
X191627Y114870D01*
X191602Y114821D01*
X191569Y114777D01*
X191538Y114695D01*
X191498Y114617D01*
X191490Y114569D01*
X191467Y114511D01*
X191455Y114363D01*
X191442Y114286D01*
X191442Y113839D01*
X191454Y113753D01*
X191457Y113665D01*
X191474Y113612D01*
X191482Y113558D01*
X191518Y113478D01*
X191545Y113395D01*
X191573Y113355D01*
X191598Y113298D01*
X191694Y113185D01*
X191740Y113121D01*
X193652Y111209D01*
X193652Y106929D01*
X193657Y106898D01*
X193654Y106867D01*
X193672Y106791D01*
X193692Y106647D01*
X193718Y106589D01*
X193728Y106546D01*
X193728Y103005D01*
X193722Y102980D01*
X193708Y102952D01*
X193695Y102875D01*
X193659Y102734D01*
X193660Y102670D01*
X193652Y102621D01*
X193652Y98341D01*
X191271Y95960D01*
X186991Y95960D01*
X186961Y95956D01*
X186930Y95958D01*
X186853Y95941D01*
X186710Y95920D01*
X186651Y95894D01*
X186608Y95884D01*
X177941Y95884D01*
X177854Y95872D01*
X177767Y95869D01*
X177714Y95852D01*
X177659Y95844D01*
X177579Y95809D01*
X177496Y95782D01*
X177457Y95754D01*
X177400Y95728D01*
X177287Y95632D01*
X177223Y95587D01*
X176740Y95104D01*
X176687Y95034D01*
X176627Y94970D01*
X176602Y94921D01*
X176569Y94876D01*
X176538Y94795D01*
X176498Y94717D01*
X176490Y94669D01*
X176467Y94611D01*
X176455Y94463D01*
X176442Y94386D01*
X176442Y92989D01*
X176454Y92903D01*
X176457Y92815D01*
X176474Y92763D01*
X176482Y92708D01*
X176518Y92628D01*
X176545Y92545D01*
X176573Y92505D01*
X176598Y92448D01*
X176694Y92335D01*
X176740Y92271D01*
X177082Y91929D01*
X177129Y91894D01*
X177169Y91851D01*
X177242Y91809D01*
X177309Y91758D01*
X177364Y91737D01*
X177414Y91707D01*
X177496Y91687D01*
X177575Y91657D01*
X177633Y91652D01*
X177690Y91637D01*
X177774Y91640D01*
X177858Y91633D01*
X177916Y91645D01*
X177974Y91646D01*
X178054Y91672D01*
X178137Y91689D01*
X178189Y91716D01*
X178245Y91734D01*
X178301Y91774D01*
X178389Y91820D01*
X178462Y91889D01*
X178518Y91929D01*
X179116Y92527D01*
X195484Y92527D01*
X197865Y90146D01*
X197865Y87849D01*
X197877Y87762D01*
X197880Y87675D01*
X197897Y87622D01*
X197905Y87567D01*
X197940Y87488D01*
X197967Y87404D01*
X197995Y87365D01*
X198021Y87308D01*
X198117Y87195D01*
X198162Y87131D01*
X198791Y86502D01*
X200280Y82908D01*
X200280Y17780D01*
X200288Y17722D01*
X200286Y17664D01*
X200308Y17582D01*
X200320Y17498D01*
X200343Y17445D01*
X200358Y17389D01*
X200401Y17316D01*
X200436Y17239D01*
X200474Y17194D01*
X200503Y17144D01*
X200565Y17086D01*
X200619Y17022D01*
X200668Y16990D01*
X200711Y16950D01*
X200786Y16911D01*
X200856Y16864D01*
X200912Y16847D01*
X200964Y16820D01*
X201032Y16809D01*
X201127Y16779D01*
X201227Y16776D01*
X201295Y16765D01*
X242984Y16765D01*
X245365Y14384D01*
X245365Y5080D01*
X245373Y5022D01*
X245371Y4964D01*
X245393Y4882D01*
X245405Y4798D01*
X245428Y4745D01*
X245443Y4689D01*
X245486Y4616D01*
X245521Y4539D01*
X245559Y4494D01*
X245588Y4444D01*
X245650Y4386D01*
X245704Y4322D01*
X245753Y4290D01*
X245796Y4250D01*
X245871Y4211D01*
X245941Y4164D01*
X245997Y4147D01*
X246049Y4120D01*
X246117Y4109D01*
X246212Y4079D01*
X246312Y4076D01*
X246380Y4065D01*
X342900Y4065D01*
X342937Y4070D01*
G37*
G36*
X134678Y4073D02*
X134678Y4073D01*
X134736Y4071D01*
X134818Y4093D01*
X134902Y4105D01*
X134955Y4128D01*
X135011Y4143D01*
X135084Y4186D01*
X135161Y4221D01*
X135206Y4259D01*
X135256Y4288D01*
X135314Y4350D01*
X135378Y4404D01*
X135410Y4453D01*
X135450Y4496D01*
X135489Y4571D01*
X135536Y4641D01*
X135553Y4697D01*
X135580Y4749D01*
X135591Y4817D01*
X135621Y4912D01*
X135624Y5012D01*
X135635Y5080D01*
X135635Y14384D01*
X138016Y16765D01*
X179705Y16765D01*
X179763Y16773D01*
X179821Y16771D01*
X179903Y16793D01*
X179987Y16805D01*
X180040Y16828D01*
X180096Y16843D01*
X180169Y16886D01*
X180246Y16921D01*
X180291Y16959D01*
X180341Y16988D01*
X180399Y17050D01*
X180463Y17104D01*
X180495Y17153D01*
X180535Y17196D01*
X180574Y17271D01*
X180621Y17341D01*
X180638Y17397D01*
X180665Y17449D01*
X180676Y17517D01*
X180706Y17612D01*
X180709Y17712D01*
X180720Y17780D01*
X180720Y68383D01*
X180712Y68440D01*
X180714Y68499D01*
X180692Y68580D01*
X180680Y68664D01*
X180657Y68717D01*
X180642Y68774D01*
X180599Y68846D01*
X180564Y68923D01*
X180526Y68968D01*
X180497Y69018D01*
X180435Y69076D01*
X180381Y69140D01*
X180332Y69173D01*
X180289Y69213D01*
X180214Y69251D01*
X180144Y69298D01*
X180088Y69316D01*
X180036Y69342D01*
X179968Y69354D01*
X179873Y69384D01*
X179773Y69386D01*
X179705Y69398D01*
X179116Y69398D01*
X178518Y69996D01*
X178471Y70031D01*
X178431Y70074D01*
X178358Y70116D01*
X178291Y70167D01*
X178236Y70188D01*
X178186Y70217D01*
X178104Y70238D01*
X178025Y70268D01*
X177967Y70273D01*
X177910Y70288D01*
X177826Y70285D01*
X177742Y70292D01*
X177684Y70280D01*
X177626Y70279D01*
X177546Y70253D01*
X177463Y70236D01*
X177411Y70209D01*
X177355Y70191D01*
X177299Y70151D01*
X177211Y70105D01*
X177138Y70036D01*
X177082Y69996D01*
X176484Y69398D01*
X160116Y69398D01*
X157735Y71779D01*
X157735Y76757D01*
X157731Y76788D01*
X157733Y76819D01*
X157716Y76895D01*
X157695Y77039D01*
X157669Y77097D01*
X157658Y77146D01*
X156883Y79017D01*
X156883Y94386D01*
X156871Y94472D01*
X156868Y94560D01*
X156851Y94612D01*
X156843Y94667D01*
X156807Y94747D01*
X156780Y94830D01*
X156752Y94870D01*
X156727Y94927D01*
X156640Y95030D01*
X156623Y95058D01*
X156609Y95071D01*
X156585Y95104D01*
X156098Y95591D01*
X156098Y113959D01*
X158479Y116340D01*
X174846Y116340D01*
X176500Y114686D01*
X176523Y114669D01*
X176542Y114646D01*
X176636Y114583D01*
X176727Y114515D01*
X176754Y114505D01*
X176779Y114489D01*
X176887Y114454D01*
X176992Y114414D01*
X177022Y114412D01*
X177050Y114403D01*
X177163Y114400D01*
X177276Y114391D01*
X177304Y114396D01*
X177334Y114396D01*
X177443Y114424D01*
X177555Y114446D01*
X177581Y114460D01*
X177609Y114467D01*
X177706Y114525D01*
X177807Y114577D01*
X177828Y114598D01*
X177853Y114613D01*
X177931Y114695D01*
X178013Y114773D01*
X178028Y114799D01*
X178048Y114820D01*
X178099Y114921D01*
X178157Y115019D01*
X178164Y115047D01*
X178177Y115073D01*
X178190Y115150D01*
X178227Y115294D01*
X178225Y115357D01*
X178233Y115404D01*
X178233Y123121D01*
X178229Y123150D01*
X178231Y123179D01*
X178209Y123290D01*
X178193Y123402D01*
X178181Y123429D01*
X178175Y123458D01*
X178123Y123559D01*
X178077Y123662D01*
X178058Y123684D01*
X178044Y123710D01*
X177966Y123792D01*
X177893Y123879D01*
X177869Y123895D01*
X177848Y123916D01*
X177751Y123973D01*
X177656Y124036D01*
X177628Y124045D01*
X177603Y124060D01*
X177494Y124088D01*
X177385Y124122D01*
X177356Y124123D01*
X177328Y124130D01*
X177215Y124127D01*
X177101Y124129D01*
X177073Y124122D01*
X177043Y124121D01*
X176936Y124086D01*
X176826Y124058D01*
X176801Y124043D01*
X176773Y124034D01*
X176709Y123988D01*
X176582Y123912D01*
X176539Y123867D01*
X176500Y123839D01*
X174709Y122048D01*
X161841Y122048D01*
X161055Y122834D01*
X161009Y122869D01*
X160968Y122911D01*
X160896Y122954D01*
X160828Y123005D01*
X160774Y123025D01*
X160723Y123055D01*
X160641Y123076D01*
X160563Y123106D01*
X160504Y123111D01*
X160448Y123125D01*
X160363Y123122D01*
X160279Y123129D01*
X160222Y123118D01*
X160163Y123116D01*
X160083Y123090D01*
X160000Y123074D01*
X159949Y123047D01*
X159893Y123029D01*
X159837Y122988D01*
X159748Y122943D01*
X159676Y122874D01*
X159620Y122834D01*
X158834Y122048D01*
X145966Y122048D01*
X143585Y124429D01*
X143585Y137296D01*
X143684Y137395D01*
X143719Y137441D01*
X143761Y137482D01*
X143804Y137554D01*
X143855Y137622D01*
X143875Y137676D01*
X143905Y137727D01*
X143926Y137808D01*
X143956Y137887D01*
X143961Y137946D01*
X143975Y138002D01*
X143972Y138087D01*
X143979Y138171D01*
X143968Y138228D01*
X143966Y138286D01*
X143940Y138367D01*
X143924Y138449D01*
X143897Y138501D01*
X143879Y138557D01*
X143838Y138613D01*
X143793Y138702D01*
X143724Y138774D01*
X143684Y138830D01*
X143546Y138968D01*
X143476Y139021D01*
X143412Y139081D01*
X143363Y139106D01*
X143319Y139139D01*
X143237Y139170D01*
X143159Y139210D01*
X143111Y139218D01*
X143053Y139240D01*
X142905Y139253D01*
X142828Y139266D01*
X102870Y139266D01*
X102812Y139258D01*
X102754Y139259D01*
X102672Y139238D01*
X102588Y139226D01*
X102535Y139202D01*
X102479Y139187D01*
X102406Y139144D01*
X102329Y139110D01*
X102284Y139072D01*
X102234Y139042D01*
X102176Y138980D01*
X102112Y138926D01*
X102080Y138877D01*
X102040Y138835D01*
X102001Y138760D01*
X101954Y138689D01*
X101937Y138634D01*
X101910Y138582D01*
X101899Y138514D01*
X101869Y138418D01*
X101866Y138319D01*
X101855Y138251D01*
X101855Y137123D01*
X99882Y132362D01*
X96238Y128718D01*
X91477Y126745D01*
X86323Y126745D01*
X81562Y128718D01*
X77918Y132362D01*
X75945Y137123D01*
X75945Y142277D01*
X77918Y147038D01*
X81562Y150682D01*
X86323Y152655D01*
X91477Y152655D01*
X94176Y151537D01*
X94206Y151529D01*
X94234Y151515D01*
X94311Y151502D01*
X94452Y151466D01*
X94516Y151467D01*
X94565Y151459D01*
X142828Y151459D01*
X142914Y151471D01*
X143002Y151474D01*
X143055Y151491D01*
X143109Y151499D01*
X143189Y151535D01*
X143272Y151562D01*
X143312Y151590D01*
X143369Y151615D01*
X143482Y151711D01*
X143546Y151757D01*
X145966Y154177D01*
X158834Y154177D01*
X159620Y153391D01*
X159666Y153356D01*
X159707Y153314D01*
X159779Y153271D01*
X159847Y153220D01*
X159901Y153200D01*
X159952Y153170D01*
X160033Y153149D01*
X160112Y153119D01*
X160171Y153114D01*
X160227Y153100D01*
X160312Y153103D01*
X160396Y153096D01*
X160453Y153107D01*
X160512Y153109D01*
X160592Y153135D01*
X160674Y153151D01*
X160726Y153178D01*
X160782Y153196D01*
X160838Y153236D01*
X160927Y153282D01*
X160999Y153351D01*
X161055Y153391D01*
X161841Y154177D01*
X168047Y154177D01*
X168134Y154189D01*
X168221Y154192D01*
X168274Y154209D01*
X168329Y154217D01*
X168408Y154253D01*
X168492Y154280D01*
X168531Y154308D01*
X168588Y154333D01*
X168701Y154429D01*
X168765Y154475D01*
X170672Y156381D01*
X170689Y156405D01*
X170712Y156424D01*
X170774Y156518D01*
X170842Y156608D01*
X170853Y156636D01*
X170869Y156660D01*
X170903Y156768D01*
X170944Y156874D01*
X170946Y156903D01*
X170955Y156931D01*
X170958Y157045D01*
X170967Y157157D01*
X170961Y157186D01*
X170962Y157215D01*
X170934Y157325D01*
X170911Y157436D01*
X170898Y157462D01*
X170890Y157490D01*
X170833Y157588D01*
X170780Y157688D01*
X170760Y157710D01*
X170745Y157735D01*
X170663Y157812D01*
X170585Y157894D01*
X170559Y157909D01*
X170538Y157929D01*
X170437Y157981D01*
X170339Y158038D01*
X170311Y158045D01*
X170285Y158059D01*
X170207Y158072D01*
X170064Y158108D01*
X170001Y158106D01*
X169954Y158114D01*
X163110Y158114D01*
X160654Y160570D01*
X160654Y179028D01*
X163110Y181484D01*
X180723Y181484D01*
X180810Y181496D01*
X180897Y181499D01*
X180950Y181516D01*
X181005Y181524D01*
X181084Y181559D01*
X181168Y181586D01*
X181207Y181614D01*
X181264Y181640D01*
X181377Y181736D01*
X181441Y181781D01*
X184741Y185081D01*
X184757Y185102D01*
X184777Y185119D01*
X184808Y185167D01*
X184853Y185215D01*
X184879Y185264D01*
X184912Y185308D01*
X184924Y185341D01*
X184934Y185356D01*
X184948Y185401D01*
X184983Y185468D01*
X184991Y185515D01*
X185013Y185574D01*
X185017Y185616D01*
X185020Y185627D01*
X185021Y185671D01*
X185025Y185721D01*
X185038Y185799D01*
X185038Y211540D01*
X188805Y215307D01*
X188857Y215377D01*
X188917Y215441D01*
X188943Y215490D01*
X188976Y215534D01*
X189007Y215616D01*
X189047Y215694D01*
X189055Y215741D01*
X189077Y215800D01*
X189089Y215947D01*
X189102Y216025D01*
X189102Y219901D01*
X189094Y219958D01*
X189096Y220017D01*
X189074Y220098D01*
X189062Y220182D01*
X189039Y220235D01*
X189024Y220292D01*
X188981Y220364D01*
X188946Y220441D01*
X188908Y220486D01*
X188879Y220536D01*
X188817Y220594D01*
X188763Y220658D01*
X188714Y220691D01*
X188671Y220731D01*
X188596Y220769D01*
X188526Y220816D01*
X188470Y220834D01*
X188418Y220860D01*
X188350Y220872D01*
X188255Y220902D01*
X188155Y220904D01*
X188087Y220916D01*
X187275Y220916D01*
X186328Y221308D01*
X186298Y221316D01*
X186270Y221330D01*
X186193Y221343D01*
X186053Y221379D01*
X185988Y221377D01*
X185939Y221385D01*
X182417Y221385D01*
X182382Y221399D01*
X182235Y221411D01*
X182157Y221424D01*
X176210Y221424D01*
X176124Y221412D01*
X176036Y221409D01*
X175984Y221392D01*
X175929Y221384D01*
X175849Y221348D01*
X175766Y221321D01*
X175727Y221293D01*
X175669Y221268D01*
X175556Y221172D01*
X175492Y221126D01*
X173844Y219478D01*
X173791Y219408D01*
X173731Y219344D01*
X173706Y219294D01*
X173673Y219250D01*
X173642Y219169D01*
X173602Y219091D01*
X173594Y219043D01*
X173571Y218985D01*
X173559Y218837D01*
X173546Y218760D01*
X173546Y212322D01*
X171091Y209867D01*
X151172Y209867D01*
X148716Y212322D01*
X148716Y232720D01*
X148708Y232778D01*
X148710Y232836D01*
X148688Y232918D01*
X148676Y233002D01*
X148653Y233055D01*
X148638Y233111D01*
X148595Y233184D01*
X148560Y233261D01*
X148522Y233306D01*
X148493Y233356D01*
X148431Y233414D01*
X148377Y233478D01*
X148328Y233510D01*
X148285Y233550D01*
X148210Y233589D01*
X148140Y233636D01*
X148084Y233653D01*
X148032Y233680D01*
X147964Y233691D01*
X147869Y233721D01*
X147769Y233724D01*
X147701Y233735D01*
X131591Y233735D01*
X131527Y233773D01*
X131459Y233823D01*
X131405Y233844D01*
X131354Y233874D01*
X131273Y233895D01*
X131194Y233925D01*
X131136Y233929D01*
X131079Y233944D01*
X130994Y233941D01*
X130910Y233948D01*
X130853Y233937D01*
X130795Y233935D01*
X130714Y233909D01*
X130632Y233892D01*
X130580Y233865D01*
X130524Y233847D01*
X130468Y233807D01*
X130379Y233761D01*
X130352Y233735D01*
X113431Y233735D01*
X113297Y233716D01*
X113219Y233713D01*
X112644Y233590D01*
X103770Y233867D01*
X103759Y233863D01*
X103746Y233866D01*
X103677Y233855D01*
X103654Y233841D01*
X103603Y233815D01*
X103540Y233745D01*
X102721Y233702D01*
X102715Y233699D01*
X102708Y233701D01*
X101898Y233572D01*
X101822Y233627D01*
X101796Y233633D01*
X101742Y233651D01*
X100854Y233604D01*
X100849Y233602D01*
X100771Y233567D01*
X100756Y233552D01*
X99872Y233552D01*
X99870Y233551D01*
X99868Y233551D01*
X99866Y233552D01*
X98983Y233506D01*
X98968Y233519D01*
X98967Y233520D01*
X98962Y233522D01*
X98883Y233552D01*
X14859Y233552D01*
X14857Y233551D01*
X14855Y233552D01*
X14812Y233532D01*
X14768Y233514D01*
X14768Y233512D01*
X14766Y233511D01*
X14733Y233426D01*
X14733Y211201D01*
X14734Y211199D01*
X14733Y211197D01*
X14753Y211154D01*
X14771Y211110D01*
X14773Y211110D01*
X14774Y211108D01*
X14859Y211075D01*
X16765Y211075D01*
X16765Y188816D01*
X14384Y186435D01*
X5080Y186435D01*
X5022Y186427D01*
X4964Y186429D01*
X4882Y186407D01*
X4798Y186395D01*
X4745Y186372D01*
X4689Y186357D01*
X4616Y186314D01*
X4539Y186279D01*
X4494Y186241D01*
X4444Y186212D01*
X4386Y186150D01*
X4322Y186096D01*
X4290Y186047D01*
X4250Y186004D01*
X4211Y185929D01*
X4164Y185859D01*
X4147Y185803D01*
X4120Y185751D01*
X4109Y185683D01*
X4079Y185588D01*
X4076Y185488D01*
X4065Y185420D01*
X4065Y38100D01*
X4070Y38063D01*
X4067Y38034D01*
X4349Y33724D01*
X4375Y33604D01*
X4382Y33527D01*
X6613Y25201D01*
X6694Y25009D01*
X6714Y24956D01*
X11024Y17491D01*
X11153Y17327D01*
X11186Y17281D01*
X17281Y11186D01*
X17447Y11060D01*
X17491Y11024D01*
X24956Y6714D01*
X25149Y6636D01*
X25201Y6613D01*
X33527Y4382D01*
X33649Y4367D01*
X33724Y4349D01*
X38034Y4067D01*
X38070Y4070D01*
X38100Y4065D01*
X134620Y4065D01*
X134678Y4073D01*
G37*
G36*
X189994Y144909D02*
X189994Y144909D01*
X189996Y144908D01*
X190039Y144928D01*
X190083Y144946D01*
X190083Y144948D01*
X190085Y144949D01*
X190118Y145034D01*
X190118Y157174D01*
X199225Y166281D01*
X199226Y166282D01*
X199227Y166282D01*
X199227Y166284D01*
X199229Y166285D01*
X199262Y166370D01*
X199262Y177748D01*
X206083Y184569D01*
X206085Y184572D01*
X206087Y184573D01*
X206120Y184658D01*
X206120Y209804D01*
X206120Y209806D01*
X206119Y209807D01*
X206120Y209810D01*
X206083Y209893D01*
X200532Y215444D01*
X200532Y220218D01*
X200531Y220220D01*
X200532Y220222D01*
X200512Y220265D01*
X200494Y220309D01*
X200492Y220309D01*
X200491Y220311D01*
X200406Y220344D01*
X193294Y220344D01*
X193292Y220343D01*
X193290Y220344D01*
X193247Y220324D01*
X193203Y220306D01*
X193203Y220304D01*
X193201Y220303D01*
X193168Y220218D01*
X193168Y213920D01*
X189141Y209893D01*
X189140Y209890D01*
X189137Y209889D01*
X189104Y209804D01*
X189104Y183694D01*
X182828Y177418D01*
X164846Y177418D01*
X164844Y177417D01*
X164842Y177418D01*
X164799Y177398D01*
X164755Y177380D01*
X164755Y177378D01*
X164753Y177377D01*
X164720Y177292D01*
X164720Y162306D01*
X164721Y162304D01*
X164720Y162302D01*
X164740Y162259D01*
X164758Y162215D01*
X164760Y162215D01*
X164761Y162213D01*
X164846Y162180D01*
X178002Y162180D01*
X184532Y155650D01*
X184532Y145034D01*
X184533Y145032D01*
X184532Y145030D01*
X184552Y144987D01*
X184570Y144943D01*
X184572Y144943D01*
X184573Y144941D01*
X184658Y144908D01*
X189992Y144908D01*
X189994Y144909D01*
G37*
G36*
X169357Y213933D02*
X169357Y213933D01*
X169359Y213932D01*
X169402Y213952D01*
X169445Y213971D01*
X169446Y213973D01*
X169448Y213974D01*
X169481Y214059D01*
X169481Y220864D01*
X171285Y222669D01*
X171287Y222672D01*
X171289Y222673D01*
X171322Y222758D01*
X171322Y233363D01*
X171321Y233365D01*
X171322Y233367D01*
X171302Y233410D01*
X171284Y233453D01*
X171282Y233454D01*
X171281Y233456D01*
X171196Y233489D01*
X165862Y233489D01*
X165859Y233487D01*
X165856Y233489D01*
X165773Y233452D01*
X164476Y232155D01*
X152908Y232155D01*
X152906Y232154D01*
X152904Y232155D01*
X152861Y232135D01*
X152817Y232117D01*
X152817Y232115D01*
X152815Y232114D01*
X152782Y232029D01*
X152782Y214059D01*
X152783Y214057D01*
X152782Y214054D01*
X152802Y214011D01*
X152820Y213968D01*
X152822Y213967D01*
X152823Y213965D01*
X152908Y213932D01*
X169355Y213932D01*
X169357Y213933D01*
G37*
G36*
X199646Y237619D02*
X199646Y237619D01*
X199648Y237618D01*
X199691Y237638D01*
X199735Y237656D01*
X199735Y237658D01*
X199737Y237659D01*
X199770Y237744D01*
X199770Y243788D01*
X201543Y245560D01*
X201544Y245563D01*
X201547Y245565D01*
X201575Y245637D01*
X202772Y246834D01*
X202852Y246870D01*
X205321Y249339D01*
X205323Y249342D01*
X205325Y249343D01*
X205358Y249428D01*
X205358Y255270D01*
X205357Y255272D01*
X205358Y255274D01*
X205338Y255317D01*
X205320Y255361D01*
X205318Y255361D01*
X205317Y255363D01*
X205232Y255396D01*
X186944Y255396D01*
X186942Y255395D01*
X186940Y255396D01*
X186897Y255376D01*
X186853Y255358D01*
X186853Y255356D01*
X186851Y255355D01*
X186818Y255270D01*
X186818Y247194D01*
X184315Y244691D01*
X184314Y244688D01*
X184311Y244687D01*
X184278Y244602D01*
X184278Y238506D01*
X184279Y238504D01*
X184278Y238502D01*
X184298Y238459D01*
X184316Y238415D01*
X184318Y238415D01*
X184319Y238413D01*
X184404Y238380D01*
X192734Y238380D01*
X193459Y237655D01*
X193462Y237654D01*
X193463Y237651D01*
X193548Y237618D01*
X199644Y237618D01*
X199646Y237619D01*
G37*
G36*
X99813Y235587D02*
X99813Y235587D01*
X99822Y235586D01*
X102488Y235726D01*
X102496Y235729D01*
X102514Y235729D01*
X105150Y236148D01*
X105154Y236150D01*
X105163Y236151D01*
X112956Y237814D01*
X113008Y237842D01*
X113063Y237865D01*
X113070Y237875D01*
X113080Y237880D01*
X113109Y237932D01*
X113143Y237981D01*
X113146Y237996D01*
X113149Y238003D01*
X113149Y238016D01*
X113156Y238062D01*
X113156Y244539D01*
X113140Y244596D01*
X113128Y244654D01*
X113120Y244663D01*
X113117Y244674D01*
X113072Y244713D01*
X113032Y244757D01*
X113017Y244762D01*
X113012Y244767D01*
X112999Y244769D01*
X112956Y244786D01*
X105163Y246449D01*
X105158Y246449D01*
X105150Y246452D01*
X102514Y246871D01*
X102505Y246870D01*
X102488Y246874D01*
X99822Y247014D01*
X99818Y247013D01*
X99809Y247014D01*
X95758Y247014D01*
X95743Y247010D01*
X95727Y247012D01*
X95676Y246991D01*
X95623Y246975D01*
X95612Y246963D01*
X95598Y246957D01*
X95566Y246911D01*
X95529Y246870D01*
X95527Y246854D01*
X95518Y246841D01*
X95505Y246761D01*
X95505Y235839D01*
X95509Y235824D01*
X95507Y235808D01*
X95528Y235757D01*
X95544Y235704D01*
X95556Y235693D01*
X95562Y235679D01*
X95608Y235647D01*
X95649Y235610D01*
X95665Y235608D01*
X95678Y235599D01*
X95758Y235586D01*
X99809Y235586D01*
X99813Y235587D01*
G37*
G36*
X237632Y221303D02*
X237632Y221303D01*
X237648Y221300D01*
X237699Y221322D01*
X237752Y221337D01*
X237763Y221349D01*
X237777Y221355D01*
X237809Y221401D01*
X237846Y221443D01*
X237848Y221458D01*
X237857Y221471D01*
X237870Y221552D01*
X237870Y232474D01*
X237866Y232489D01*
X237868Y232504D01*
X237847Y232555D01*
X237831Y232609D01*
X237819Y232619D01*
X237813Y232634D01*
X237767Y232665D01*
X237726Y232702D01*
X237710Y232705D01*
X237697Y232714D01*
X237617Y232727D01*
X233566Y232727D01*
X233562Y232725D01*
X233553Y232726D01*
X230888Y232586D01*
X230879Y232583D01*
X230861Y232583D01*
X228225Y232164D01*
X228221Y232162D01*
X228212Y232162D01*
X220419Y230499D01*
X220367Y230471D01*
X220312Y230447D01*
X220305Y230438D01*
X220295Y230432D01*
X220266Y230380D01*
X220232Y230331D01*
X220229Y230316D01*
X220226Y230309D01*
X220226Y230297D01*
X220219Y230251D01*
X220219Y223774D01*
X220235Y223717D01*
X220247Y223658D01*
X220255Y223650D01*
X220258Y223639D01*
X220303Y223599D01*
X220343Y223556D01*
X220358Y223550D01*
X220363Y223545D01*
X220376Y223543D01*
X220419Y223526D01*
X228212Y221863D01*
X228217Y221864D01*
X228225Y221861D01*
X230861Y221442D01*
X230870Y221443D01*
X230888Y221439D01*
X233553Y221299D01*
X233557Y221300D01*
X233566Y221298D01*
X237617Y221298D01*
X237632Y221303D01*
G37*
D10*
X155813Y228600D03*
X145813Y228600D03*
X166450Y217488D03*
X176450Y217488D03*
D11*
X190500Y252175D03*
X190500Y262175D03*
D10*
X196613Y241300D03*
X206613Y241300D03*
D11*
X157163Y241063D03*
X157163Y251063D03*
D10*
X207725Y227013D03*
X217725Y227013D03*
X115650Y241300D03*
X125650Y241300D03*
D11*
X196850Y217250D03*
X196850Y227250D03*
D10*
X136288Y241300D03*
X146288Y241300D03*
D12*
X168550Y229450D03*
D13*
X187050Y228450D03*
X187050Y241450D03*
X168550Y241450D03*
D10*
X155813Y217488D03*
X145813Y217488D03*
X178038Y252413D03*
X168038Y252413D03*
D14*
X38354Y241300D03*
D15*
X38354Y285496D03*
X38354Y197104D03*
D14*
X342646Y227013D03*
D15*
X342646Y182817D03*
X342646Y271209D03*
D16*
X152400Y130863D03*
X152400Y145363D03*
X224525Y130175D03*
X239025Y130175D03*
X224525Y146050D03*
X239025Y146050D03*
X184838Y104775D03*
X199338Y104775D03*
X168275Y145363D03*
X168275Y130863D03*
X194363Y173038D03*
X208863Y173038D03*
D17*
X171425Y169863D03*
X152425Y169863D03*
D10*
X192325Y206375D03*
X182325Y206375D03*
X202963Y206375D03*
X212963Y206375D03*
X202963Y195263D03*
X212963Y195263D03*
D18*
X187350Y125113D03*
X196850Y125113D03*
X206350Y125113D03*
X206350Y151113D03*
X196850Y151113D03*
X187350Y151113D03*
D19*
X190500Y38354D03*
D20*
X146304Y38354D03*
X234696Y38354D03*
D17*
X166663Y104775D03*
X147663Y104775D03*
X187300Y80963D03*
X168300Y80963D03*
D21*
X342900Y38100D03*
X38100Y38100D03*
X342900Y342900D03*
X38100Y342900D03*
D22*
X88900Y139700D03*
X88900Y88900D03*
D10*
X192325Y195263D03*
X182325Y195263D03*
D11*
X201613Y252175D03*
X201613Y262175D03*
D23*
X219075Y214313D03*
X220663Y198438D03*
X249238Y130175D03*
X249238Y138113D03*
X239713Y119063D03*
X249238Y146050D03*
X196850Y114300D03*
X184150Y217488D03*
X174625Y200025D03*
X174625Y192088D03*
X180975Y187325D03*
X174625Y207963D03*
X138113Y230188D03*
X138113Y222250D03*
X214313Y238125D03*
X185738Y269875D03*
X179388Y265113D03*
X147638Y254000D03*
X157163Y258763D03*
X171450Y265113D03*
X163513Y265113D03*
X166688Y206375D03*
X153988Y206375D03*
X146050Y209550D03*
X138113Y214313D03*
X201613Y269875D03*
X209550Y268288D03*
X247650Y122238D03*
X239713Y157163D03*
X247650Y153988D03*
X209550Y109538D03*
X209550Y101600D03*
X217488Y117475D03*
X228600Y117475D03*
X152400Y117475D03*
X144463Y117475D03*
X136525Y117475D03*
X133350Y109538D03*
X133350Y100013D03*
X152400Y92075D03*
X144463Y92075D03*
X136525Y92075D03*
X157163Y182563D03*
X149225Y182563D03*
X141288Y182563D03*
X139700Y174625D03*
X139700Y166688D03*
X139700Y158750D03*
X214313Y182563D03*
X219075Y176213D03*
X219075Y168275D03*
X219075Y160338D03*
X214313Y246063D03*
X214313Y254000D03*
X193675Y269875D03*
X220663Y188913D03*
X19050Y228600D03*
X28575Y228600D03*
X38100Y228600D03*
X47625Y228600D03*
X57150Y228600D03*
X66675Y228600D03*
X76200Y228600D03*
X85725Y228600D03*
X95250Y228600D03*
X104775Y228600D03*
X114300Y228600D03*
X123825Y228600D03*
X19050Y254000D03*
X28575Y254000D03*
X38100Y254000D03*
X47625Y254000D03*
X57150Y254000D03*
X66675Y254000D03*
X76200Y254000D03*
X85725Y254000D03*
X95250Y254000D03*
X104775Y254000D03*
X114300Y254000D03*
X123825Y254000D03*
X133350Y254000D03*
X23813Y261938D03*
X33338Y261938D03*
X42863Y261938D03*
X52388Y261938D03*
X61913Y261938D03*
X71438Y261938D03*
X80963Y261938D03*
X90488Y261938D03*
X100013Y261938D03*
X109538Y261938D03*
X23813Y220663D03*
X33338Y220663D03*
X42863Y220663D03*
X52388Y220663D03*
X61913Y220663D03*
X71438Y220663D03*
X80963Y220663D03*
X90488Y220663D03*
X100013Y220663D03*
X109538Y220663D03*
X271463Y247650D03*
X280988Y247650D03*
X290513Y247650D03*
X300038Y247650D03*
X309563Y247650D03*
X319088Y247650D03*
X328613Y247650D03*
X338138Y247650D03*
X347663Y247650D03*
X357188Y247650D03*
X361950Y265113D03*
X323850Y265113D03*
X323850Y277813D03*
X361950Y277813D03*
X342900Y277813D03*
X342900Y265113D03*
X276225Y239713D03*
X285750Y239713D03*
X295275Y239713D03*
X304800Y239713D03*
X314325Y239713D03*
X323850Y239713D03*
X333375Y239713D03*
X342900Y239713D03*
X352425Y239713D03*
X361950Y239713D03*
X266700Y239713D03*
X257175Y239713D03*
X247650Y239713D03*
X238125Y239713D03*
X228600Y239713D03*
X261938Y247650D03*
X252413Y247650D03*
X242888Y247650D03*
X233363Y247650D03*
X271463Y206375D03*
X280988Y206375D03*
X290513Y206375D03*
X300038Y206375D03*
X309563Y206375D03*
X319088Y206375D03*
X328613Y206375D03*
X338138Y206375D03*
X347663Y206375D03*
X357188Y206375D03*
X276225Y214313D03*
X285750Y214313D03*
X295275Y214313D03*
X304800Y214313D03*
X314325Y214313D03*
X323850Y214313D03*
X333375Y214313D03*
X342900Y214313D03*
X352425Y214313D03*
X361950Y214313D03*
X266700Y214313D03*
X257175Y214313D03*
X247650Y214313D03*
X261938Y206375D03*
X252413Y206375D03*
X238125Y214313D03*
X242888Y206375D03*
X228600Y214313D03*
X233363Y206375D03*
X352425Y265113D03*
X352425Y277813D03*
X333375Y277813D03*
X333375Y265113D03*
X361950Y176213D03*
X323850Y176213D03*
X323850Y188913D03*
X361950Y188913D03*
X342900Y188913D03*
X342900Y176213D03*
X352425Y176213D03*
X352425Y188913D03*
X333375Y188913D03*
X333375Y176213D03*
X57150Y279400D03*
X19050Y279400D03*
X19050Y292100D03*
X57150Y292100D03*
X38100Y292100D03*
X38100Y279400D03*
X47625Y279400D03*
X47625Y292100D03*
X28575Y292100D03*
X28575Y279400D03*
X57150Y190500D03*
X19050Y190500D03*
X19050Y203200D03*
X57150Y203200D03*
X38100Y203200D03*
X38100Y190500D03*
X47625Y190500D03*
X47625Y203200D03*
X28575Y203200D03*
X28575Y190500D03*
X214313Y261938D03*
X152400Y57150D03*
X152400Y19050D03*
X139700Y19050D03*
X139700Y57150D03*
X139700Y38100D03*
X152400Y38100D03*
X152400Y47625D03*
X139700Y47625D03*
X139700Y28575D03*
X152400Y28575D03*
X241300Y57150D03*
X241300Y19050D03*
X228600Y19050D03*
X228600Y57150D03*
X228600Y38100D03*
X241300Y38100D03*
X241300Y47625D03*
X228600Y47625D03*
X228600Y28575D03*
X241300Y28575D03*
X166688Y190500D03*
X166688Y198438D03*
X223838Y206375D03*
X223838Y247650D03*
D24*
X156663Y229450D02*
X155813Y228600D01*
X157163Y241300D02*
X146288Y241300D01*
X157163Y241300D02*
X168550Y241300D01*
X168550Y241450D01*
X157163Y241300D02*
X157163Y241063D01*
D25*
X168550Y241450D02*
X168550Y252413D01*
X168038Y252413D01*
X178038Y252413D02*
X178038Y237463D01*
X187050Y228450D01*
D24*
X196850Y227013D02*
X207725Y227013D01*
X196850Y227013D02*
X188488Y227013D01*
X187050Y228450D01*
X196850Y227250D02*
X196850Y227013D01*
D26*
X95250Y241300D02*
X38354Y241300D01*
D27*
X95250Y241300D02*
X115650Y241300D01*
D24*
X125650Y241300D02*
X136288Y241300D01*
D26*
X236093Y227013D02*
X342646Y227013D01*
D27*
X236093Y227013D02*
X217725Y227013D01*
D25*
X219463Y151113D02*
X206350Y151113D01*
X219463Y151113D02*
X224525Y146050D01*
D28*
X204788Y126675D02*
X206350Y125113D01*
X204788Y126675D02*
X204788Y131763D01*
X189663Y134161D02*
X187877Y132375D01*
X187877Y125640D01*
X187350Y125113D01*
X202390Y134161D02*
X204788Y131763D01*
X202390Y134161D02*
X189663Y134161D01*
D29*
X187350Y125113D02*
X184838Y122600D01*
X184838Y104775D01*
D26*
X166663Y104775D02*
X166663Y80963D01*
X168300Y80963D01*
D30*
X166663Y104775D02*
X184838Y104775D01*
D24*
X152400Y145363D02*
X94563Y145363D01*
X88900Y139700D01*
X152400Y145363D02*
X168275Y145363D01*
X174025Y151113D01*
X187350Y151113D01*
D25*
X168275Y130863D02*
X152400Y130863D01*
X196850Y141288D02*
X196850Y151113D01*
X196850Y141288D02*
X185738Y141288D01*
X175313Y130863D02*
X168275Y130863D01*
X175313Y130863D02*
X185738Y141288D01*
X196850Y141288D02*
X213413Y141288D01*
X224525Y130175D01*
D26*
X190500Y80963D02*
X190500Y38354D01*
X190500Y80963D02*
X187300Y80963D01*
M02*
